<svg id="visual" viewBox="0 0 1440 450" width="1440" height="450" xmlns="http://www.w3.org/2000/svg" xmlns:xlink="http://www.w3.org/1999/xlink" version="1.1"><rect x="0" y="0" width="1440" height="450" fill="#001220"></rect><path d="M0 156L14.2 149C28.3 142 56.7 128 84.8 126.7C113 125.3 141 136.7 169.2 141.3C197.3 146 225.7 144 254 132.8C282.3 121.7 310.7 101.3 339 84.5C367.3 67.7 395.7 54.3 423.8 53.3C452 52.3 480 63.7 508.2 79.8C536.3 96 564.7 117 593 128.2C621.3 139.3 649.7 140.7 677.8 130.3C706 120 734 98 762.2 83.5C790.3 69 818.7 62 847 69.7C875.3 77.3 903.7 99.7 931.8 114C960 128.3 988 134.7 1016.2 140.5C1044.3 146.3 1072.7 151.7 1101 152.3C1129.3 153 1157.7 149 1186 143.3C1214.3 137.7 1242.7 130.3 1270.8 114.3C1299 98.3 1327 73.7 1355.2 69.5C1383.3 65.3 1411.7 81.7 1425.8 89.8L1440 98L1440 451L1425.8 451C1411.7 451 1383.3 451 1355.2 451C1327 451 1299 451 1270.8 451C1242.7 451 1214.3 451 1186 451C1157.7 451 1129.3 451 1101 451C1072.7 451 1044.3 451 1016.2 451C988 451 960 451 931.8 451C903.7 451 875.3 451 847 451C818.7 451 790.3 451 762.2 451C734 451 706 451 677.8 451C649.7 451 621.3 451 593 451C564.7 451 536.3 451 508.2 451C480 451 452 451 423.8 451C395.7 451 367.3 451 339 451C310.7 451 282.3 451 254 451C225.7 451 197.3 451 169.2 451C141 451 113 451 84.8 451C56.7 451 28.3 451 14.2 451L0 451Z" fill="#715df2"></path><path d="M0 177L14.2 176.2C28.3 175.3 56.7 173.7 84.8 175.3C113 177 141 182 169.2 177.2C197.3 172.3 225.7 157.7 254 158.3C282.3 159 310.7 175 339 190.7C367.3 206.3 395.7 221.7 423.8 214.5C452 207.3 480 177.7 508.2 172.3C536.3 167 564.7 186 593 191.2C621.3 196.3 649.7 187.7 677.8 180.3C706 173 734 167 762.2 177C790.3 187 818.7 213 847 214.2C875.3 215.3 903.7 191.7 931.8 178.3C960 165 988 162 1016.2 169.2C1044.3 176.3 1072.7 193.7 1101 200.3C1129.3 207 1157.7 203 1186 195.3C1214.3 187.7 1242.7 176.3 1270.8 180.2C1299 184 1327 203 1355.2 216.2C1383.3 229.3 1411.7 236.7 1425.8 240.3L1440 244L1440 451L1425.8 451C1411.7 451 1383.3 451 1355.2 451C1327 451 1299 451 1270.8 451C1242.7 451 1214.3 451 1186 451C1157.7 451 1129.3 451 1101 451C1072.7 451 1044.3 451 1016.2 451C988 451 960 451 931.8 451C903.7 451 875.3 451 847 451C818.7 451 790.3 451 762.2 451C734 451 706 451 677.8 451C649.7 451 621.3 451 593 451C564.7 451 536.3 451 508.2 451C480 451 452 451 423.8 451C395.7 451 367.3 451 339 451C310.7 451 282.3 451 254 451C225.7 451 197.3 451 169.2 451C141 451 113 451 84.8 451C56.7 451 28.3 451 14.2 451L0 451Z" fill="#674af8"></path><path d="M0 235L14.2 242.7C28.3 250.3 56.7 265.7 84.8 266.7C113 267.7 141 254.3 169.2 245.7C197.3 237 225.7 233 254 231.5C282.3 230 310.7 231 339 241.5C367.3 252 395.7 272 423.8 284.7C452 297.3 480 302.7 508.2 294.5C536.3 286.3 564.7 264.7 593 249.5C621.3 234.3 649.7 225.7 677.8 223.7C706 221.7 734 226.3 762.2 232.7C790.3 239 818.7 247 847 254.5C875.3 262 903.7 269 931.8 269.3C960 269.7 988 263.3 1016.2 258.8C1044.3 254.3 1072.7 251.7 1101 258C1129.3 264.3 1157.7 279.7 1186 284.8C1214.3 290 1242.7 285 1270.8 280.7C1299 276.3 1327 272.7 1355.2 269.3C1383.3 266 1411.7 263 1425.8 261.5L1440 260L1440 451L1425.8 451C1411.7 451 1383.3 451 1355.2 451C1327 451 1299 451 1270.8 451C1242.7 451 1214.3 451 1186 451C1157.7 451 1129.3 451 1101 451C1072.7 451 1044.3 451 1016.2 451C988 451 960 451 931.8 451C903.7 451 875.3 451 847 451C818.7 451 790.3 451 762.2 451C734 451 706 451 677.8 451C649.7 451 621.3 451 593 451C564.7 451 536.3 451 508.2 451C480 451 452 451 423.8 451C395.7 451 367.3 451 339 451C310.7 451 282.3 451 254 451C225.7 451 197.3 451 169.2 451C141 451 113 451 84.8 451C56.7 451 28.3 451 14.2 451L0 451Z" fill="#5f32fc"></path><path d="M0 356L14.2 348.5C28.3 341 56.7 326 84.8 327.3C113 328.7 141 346.3 169.2 354.5C197.3 362.7 225.7 361.3 254 359.7C282.3 358 310.7 356 339 350.7C367.3 345.3 395.7 336.7 423.8 338.8C452 341 480 354 508.2 365.2C536.3 376.3 564.7 385.7 593 384.3C621.3 383 649.7 371 677.8 366.8C706 362.7 734 366.3 762.2 359.2C790.3 352 818.7 334 847 326.3C875.3 318.7 903.7 321.3 931.8 331.3C960 341.3 988 358.7 1016.2 373.3C1044.3 388 1072.7 400 1101 403C1129.3 406 1157.7 400 1186 392C1214.3 384 1242.7 374 1270.8 376.3C1299 378.7 1327 393.3 1355.2 401C1383.3 408.7 1411.7 409.3 1425.8 409.7L1440 410L1440 451L1425.8 451C1411.7 451 1383.3 451 1355.2 451C1327 451 1299 451 1270.8 451C1242.7 451 1214.3 451 1186 451C1157.7 451 1129.3 451 1101 451C1072.7 451 1044.3 451 1016.2 451C988 451 960 451 931.8 451C903.7 451 875.3 451 847 451C818.7 451 790.3 451 762.2 451C734 451 706 451 677.8 451C649.7 451 621.3 451 593 451C564.7 451 536.3 451 508.2 451C480 451 452 451 423.8 451C395.7 451 367.3 451 339 451C310.7 451 282.3 451 254 451C225.7 451 197.3 451 169.2 451C141 451 113 451 84.8 451C56.7 451 28.3 451 14.2 451L0 451Z" fill="#5800ff"></path></svg>