<svg id="visual" viewBox="0 0 1440 450" width="1440" height="450" xmlns="http://www.w3.org/2000/svg" xmlns:xlink="http://www.w3.org/1999/xlink" version="1.1"><rect x="0" y="0" width="1440" height="450" fill="#01080f"></rect><path d="M0 186L26.7 194.3C53.3 202.7 106.7 219.3 160 237.8C213.3 256.3 266.7 276.7 320 289.8C373.3 303 426.7 309 480 284.3C533.3 259.7 586.7 204.3 640 203.3C693.3 202.3 746.7 255.7 800 251.8C853.3 248 906.7 187 960 181.2C1013.3 175.3 1066.7 224.7 1120 231.7C1173.3 238.7 1226.7 203.3 1280 183.8C1333.3 164.3 1386.7 160.7 1413.3 158.8L1440 157L1440 451L1413.3 451C1386.7 451 1333.3 451 1280 451C1226.7 451 1173.3 451 1120 451C1066.7 451 1013.3 451 960 451C906.7 451 853.3 451 800 451C746.7 451 693.3 451 640 451C586.7 451 533.3 451 480 451C426.7 451 373.3 451 320 451C266.7 451 213.3 451 160 451C106.7 451 53.3 451 26.7 451L0 451Z" fill="#5800ff" stroke-linecap="round" stroke-linejoin="miter"></path></svg>