<svg id="visual" viewBox="0 0 1440 450" width="1440" height="450" xmlns="http://www.w3.org/2000/svg" xmlns:xlink="http://www.w3.org/1999/xlink" version="1.1"><rect x="0" y="0" width="1440" height="450" fill="#001220"></rect><path d="M0 365L17.2 347.7C34.3 330.3 68.7 295.7 103 289.7C137.3 283.7 171.7 306.3 206 317C240.3 327.7 274.7 326.3 308.8 334.3C343 342.3 377 359.7 411.2 350.7C445.3 341.7 479.7 306.3 514 297.3C548.3 288.3 582.7 305.7 617 311.7C651.3 317.7 685.7 312.3 720 307.8C754.3 303.3 788.7 299.7 823 290.2C857.3 280.7 891.7 265.3 926 275.5C960.3 285.7 994.7 321.3 1028.8 334.5C1063 347.7 1097 338.3 1131.2 325C1165.3 311.7 1199.7 294.3 1234 290.7C1268.3 287 1302.7 297 1337 313.8C1371.3 330.7 1405.7 354.3 1422.8 366.2L1440 378L1440 0L1422.8 0C1405.7 0 1371.3 0 1337 0C1302.7 0 1268.3 0 1234 0C1199.7 0 1165.3 0 1131.2 0C1097 0 1063 0 1028.8 0C994.7 0 960.3 0 926 0C891.7 0 857.3 0 823 0C788.7 0 754.3 0 720 0C685.7 0 651.3 0 617 0C582.7 0 548.3 0 514 0C479.7 0 445.3 0 411.2 0C377 0 343 0 308.8 0C274.7 0 240.3 0 206 0C171.7 0 137.3 0 103 0C68.7 0 34.3 0 17.2 0L0 0Z" fill="#715df2"></path><path d="M0 227L17.2 236.7C34.3 246.3 68.7 265.7 103 273C137.3 280.3 171.7 275.7 206 268C240.3 260.3 274.7 249.7 308.8 243.2C343 236.7 377 234.3 411.2 242.5C445.3 250.7 479.7 269.3 514 270.2C548.3 271 582.7 254 617 250.2C651.3 246.3 685.7 255.7 720 267.7C754.3 279.7 788.7 294.3 823 288C857.3 281.7 891.7 254.3 926 254.2C960.3 254 994.7 281 1028.8 284.3C1063 287.7 1097 267.3 1131.2 259.5C1165.3 251.7 1199.7 256.3 1234 263.5C1268.3 270.7 1302.7 280.3 1337 273.8C1371.3 267.3 1405.7 244.7 1422.8 233.3L1440 222L1440 0L1422.8 0C1405.7 0 1371.3 0 1337 0C1302.7 0 1268.3 0 1234 0C1199.7 0 1165.3 0 1131.2 0C1097 0 1063 0 1028.8 0C994.7 0 960.3 0 926 0C891.7 0 857.3 0 823 0C788.7 0 754.3 0 720 0C685.7 0 651.3 0 617 0C582.7 0 548.3 0 514 0C479.7 0 445.3 0 411.2 0C377 0 343 0 308.8 0C274.7 0 240.3 0 206 0C171.7 0 137.3 0 103 0C68.7 0 34.3 0 17.2 0L0 0Z" fill="#6a4ff6"></path><path d="M0 200L17.2 205.2C34.3 210.3 68.7 220.7 103 215.3C137.3 210 171.7 189 206 177.2C240.3 165.3 274.7 162.7 308.8 163C343 163.3 377 166.7 411.2 166.2C445.3 165.7 479.7 161.3 514 173.2C548.3 185 582.7 213 617 214C651.3 215 685.7 189 720 174.2C754.3 159.3 788.7 155.7 823 157.8C857.3 160 891.7 168 926 172.2C960.3 176.3 994.7 176.7 1028.8 185.5C1063 194.3 1097 211.7 1131.2 211.2C1165.3 210.7 1199.7 192.3 1234 187.3C1268.3 182.3 1302.7 190.7 1337 186.7C1371.3 182.7 1405.7 166.3 1422.8 158.2L1440 150L1440 0L1422.8 0C1405.7 0 1371.3 0 1337 0C1302.7 0 1268.3 0 1234 0C1199.7 0 1165.3 0 1131.2 0C1097 0 1063 0 1028.8 0C994.7 0 960.3 0 926 0C891.7 0 857.3 0 823 0C788.7 0 754.3 0 720 0C685.7 0 651.3 0 617 0C582.7 0 548.3 0 514 0C479.7 0 445.3 0 411.2 0C377 0 343 0 308.8 0C274.7 0 240.3 0 206 0C171.7 0 137.3 0 103 0C68.7 0 34.3 0 17.2 0L0 0Z" fill="#633ffa"></path><path d="M0 164L17.2 158.8C34.3 153.7 68.7 143.3 103 135.3C137.3 127.3 171.7 121.7 206 119.8C240.3 118 274.7 120 308.8 129.3C343 138.7 377 155.3 411.2 164.5C445.3 173.7 479.7 175.3 514 169.8C548.3 164.3 582.7 151.7 617 147.7C651.3 143.7 685.7 148.3 720 142.7C754.3 137 788.7 121 823 114.8C857.3 108.7 891.7 112.3 926 112.8C960.3 113.3 994.7 110.7 1028.8 118.5C1063 126.3 1097 144.7 1131.2 142.2C1165.3 139.7 1199.7 116.3 1234 105.3C1268.3 94.3 1302.7 95.7 1337 97.7C1371.3 99.7 1405.7 102.3 1422.8 103.7L1440 105L1440 0L1422.8 0C1405.7 0 1371.3 0 1337 0C1302.7 0 1268.3 0 1234 0C1199.7 0 1165.3 0 1131.2 0C1097 0 1063 0 1028.8 0C994.7 0 960.3 0 926 0C891.7 0 857.3 0 823 0C788.7 0 754.3 0 720 0C685.7 0 651.3 0 617 0C582.7 0 548.3 0 514 0C479.7 0 445.3 0 411.2 0C377 0 343 0 308.8 0C274.7 0 240.3 0 206 0C171.7 0 137.3 0 103 0C68.7 0 34.3 0 17.2 0L0 0Z" fill="#5d2afd"></path><path d="M0 94L17.2 95C34.3 96 68.7 98 103 95.2C137.3 92.3 171.7 84.7 206 78.5C240.3 72.3 274.7 67.7 308.8 68C343 68.3 377 73.7 411.2 72.2C445.3 70.7 479.7 62.3 514 55.5C548.3 48.7 582.7 43.3 617 51.8C651.3 60.3 685.7 82.7 720 91.7C754.3 100.7 788.7 96.3 823 89.7C857.3 83 891.7 74 926 73.5C960.3 73 994.7 81 1028.8 88.3C1063 95.7 1097 102.3 1131.2 102C1165.3 101.7 1199.7 94.3 1234 89.5C1268.3 84.7 1302.7 82.3 1337 83.5C1371.3 84.7 1405.7 89.3 1422.8 91.7L1440 94L1440 0L1422.8 0C1405.7 0 1371.3 0 1337 0C1302.7 0 1268.3 0 1234 0C1199.7 0 1165.3 0 1131.2 0C1097 0 1063 0 1028.8 0C994.7 0 960.3 0 926 0C891.7 0 857.3 0 823 0C788.7 0 754.3 0 720 0C685.7 0 651.3 0 617 0C582.7 0 548.3 0 514 0C479.7 0 445.3 0 411.2 0C377 0 343 0 308.8 0C274.7 0 240.3 0 206 0C171.7 0 137.3 0 103 0C68.7 0 34.3 0 17.2 0L0 0Z" fill="#5800ff"></path></svg>